# Blender 3.3.1
# www.blender.org
o u
v 0.156507 0.099691 0.000000
v 0.134872 0.056879 0.000000
v 0.098004 0.022867 0.000000
v 0.048642 0.003439 0.000000
v 0.072088 0.021045 0.000000
v 0.101255 0.071173 0.000000
v 0.102359 0.365184 0.000000
v 0.081020 0.385069 0.000000
v 0.185161 0.386865 0.000000
v 0.163324 0.369668 0.000000
v -0.156164 0.101020 0.000000
v -0.115735 0.033565 0.000000
v -0.047214 0.002913 0.000000
v -0.073343 0.021436 0.000000
v -0.101364 0.072871 0.000000
v -0.102780 0.361107 0.000000
v -0.083655 0.384638 0.000000
v -0.177980 0.385536 0.000000
v -0.160742 0.362518 0.000000
v 0.155992 0.097444 -0.100000
v 0.133392 0.055027 -0.100000
v 0.094803 0.020501 -0.100000
v 0.049234 0.004052 -0.100000
v 0.100256 0.064681 -0.100000
v 0.102801 0.361941 -0.100000
v 0.084856 0.383938 -0.100000
v 0.181367 0.385565 -0.100000
v 0.161622 0.365421 -0.100000
v -0.156659 0.103144 -0.100000
v -0.119934 0.038078 -0.100000
v -0.068781 0.007802 -0.100000
v -0.033647 0.001376 -0.100000
v -0.068299 0.018509 -0.100000
v -0.099993 0.063157 -0.100000
v -0.102338 0.364364 -0.100000
v -0.079741 0.385856 -0.100000
v -0.181513 0.387209 -0.100000
v -0.162284 0.367245 -0.100000
vn -0.0000 -0.0000 1.0000
vn -0.0000 -0.0000 -1.0000
vn 0.0133 0.9998 0.0127
vn -0.8003 -0.5993 -0.0160
vn 0.7759 -0.6306 -0.0171
vn 0.8776 0.4781 -0.0344
vn 0.5771 0.8140 0.0658
vn 0.6186 -0.7856 -0.0133
vn -0.6816 -0.7315 -0.0179
vn -0.8641 0.5028 -0.0240
vn 0.3662 -0.9305 0.0103
vn -0.9997 -0.0213 0.0144
vn -0.7202 -0.6937 0.0138
vn 0.6890 -0.7245 0.0181
vn 0.9999 0.0078 0.0130
vn -0.8708 -0.4915 -0.0061
vn -0.0169 0.9998 -0.0124
vn 0.8152 0.5787 0.0242
vn -0.5093 -0.8604 -0.0175
vn -0.4080 -0.9120 0.0434
vn 0.4432 0.8964 -0.0039
vn -0.1799 -0.9836 -0.0093
vn -0.9999 0.0086 0.0094
vn 0.7140 -0.6999 0.0176
vn -0.7747 -0.6320 0.0171
vn 0.9998 -0.0210 -0.0047
vn 0.8825 -0.4702 -0.0044
vn 0.6668 -0.7452 -0.0037
vn -0.7635 0.6425 0.0653
vn 0.3395 -0.9406 -0.0038
vn -0.6005 0.7996 0.0013
vn 0.0095 0.9998 0.0164
vn -0.9998 -0.0175 0.0046
vn 1.0000 0.0049 0.0046
vn -0.8577 -0.5140 0.0128
vn -0.0172 0.9998 -0.0120
vn -1.0000 0.0038 -0.0045
vn 0.9996 -0.0252 -0.0159
vn 0.8925 -0.4510 0.0055
vn 0.6781 -0.7350 0.0036
vt 0.022587 0.000000
vt 0.057923 0.000000
vt 0.121695 0.000000
vt 0.192814 0.000000
vt 0.268506 0.000000
vt 0.329312 0.000000
vt 0.402350 0.000000
vt 0.442850 0.000000
vt 0.465325 0.000000
vt 0.505947 0.000000
vt 0.563480 0.000000
vt 0.619899 0.000000
vt 0.678994 0.000000
vt 0.735376 0.000000
vt 0.794456 0.000000
vt 0.863332 0.000000
vt 0.904498 0.000000
vt 0.939590 0.000000
vt 0.982154 0.000000
vt 0.024233 0.000000
vt 0.059672 0.000000
vt 0.128342 0.000000
vt 0.235512 0.000000
vt 0.322195 0.000000
vt 0.397686 0.000000
vt 0.437672 0.000000
vt 0.471200 0.000000
vt 0.512223 0.000000
vt 0.561869 0.000000
vt 0.615594 0.000000
vt 0.656848 0.000000
vt 0.694036 0.000000
vt 0.731426 0.000000
vt 0.780697 0.000000
vt 0.868024 0.000000
vt 0.909562 0.000000
vt 0.933411 0.000000
vt 0.975389 0.000000
s 0
f 19/19/1 17/17/1 18/18/1
f 19/19/1 16/16/1 17/17/1
f 11/11/1 16/16/1 19/19/1
f 11/11/1 15/15/1 16/16/1
f 12/12/1 15/15/1 11/11/1
f 12/12/1 14/14/1 15/15/1
f 13/13/1 14/14/1 12/12/1
f 8/8/1 10/10/1 9/9/1
f 7/7/1 10/10/1 8/8/1
f 6/6/1 10/10/1 7/7/1
f 6/6/1 1/1/1 10/10/1
f 6/6/1 2/2/1 1/1/1
f 5/5/1 2/2/1 6/6/1
f 5/5/1 3/3/1 2/2/1
f 5/5/1 4/4/1 3/3/1
f 38/38/2 37/37/2 36/36/2
f 38/38/2 36/36/2 35/35/2
f 29/29/2 38/38/2 35/35/2
f 29/29/2 35/35/2 34/34/2
f 30/30/2 29/29/2 34/34/2
f 30/30/2 34/34/2 33/33/2
f 31/31/2 30/30/2 33/33/2
f 31/31/2 33/33/2 32/32/2
f 26/26/2 27/27/2 28/28/2
f 25/25/2 26/26/2 28/28/2
f 24/24/2 25/25/2 28/28/2
f 24/24/2 28/28/2 20/20/2
f 24/24/2 20/20/2 21/21/2
f 24/24/2 21/21/2 22/22/2
f 23/23/2 24/24/2 22/22/2
f 37/37/3 17/17/3 36/36/3
f 18/18/4 38/38/4 19/19/4
f 16/16/5 35/35/5 17/17/5
f 14/14/6 34/34/6 15/15/6
f 13/13/7 32/32/7 14/14/7
f 10/10/8 27/27/8 9/9/8
f 8/8/9 26/26/9 7/7/9
f 6/6/10 24/24/10 5/5/10
f 4/4/11 22/22/11 3/3/11
f 29/29/12 19/19/12 38/38/12
f 18/18/13 37/37/13 38/38/13
f 17/17/14 35/35/14 36/36/14
f 35/35/15 15/15/15 34/34/15
f 30/30/16 11/11/16 29/29/16
f 26/26/17 9/9/17 27/27/17
f 14/14/18 33/33/18 34/34/18
f 12/12/19 30/30/19 31/31/19
f 13/13/20 12/12/20 31/31/20
f 14/14/21 32/32/21 33/33/21
f 13/13/22 31/31/22 32/32/22
f 6/6/23 25/25/23 24/24/23
f 10/10/24 28/28/24 27/27/24
f 7/7/25 26/26/25 25/25/25
f 28/28/26 1/1/26 20/20/26
f 20/20/27 2/2/27 21/21/27
f 21/21/28 3/3/28 22/22/28
f 5/5/29 24/24/29 23/23/29
f 4/4/30 23/23/30 22/22/30
f 4/4/31 5/5/31 23/23/31
f 37/37/32 18/18/32 17/17/32
f 29/29/33 11/11/33 19/19/33
f 35/35/34 16/16/34 15/15/34
f 30/30/35 12/12/35 11/11/35
f 26/26/36 8/8/36 9/9/36
f 6/6/37 7/7/37 25/25/37
f 28/28/38 10/10/38 1/1/38
f 20/20/39 1/1/39 2/2/39
f 21/21/40 2/2/40 3/3/40
